<svg xmlns="http://www.w3.org/2000/svg" version="1.1" xmlns:xlink="http://www.w3.org/1999/xlink" viewBox="0 0 200 200"><rect width="200" height="200" fill="url('#gradient')"></rect><defs><linearGradient id="gradient" gradientTransform="rotate(68 0.5 0.5)"><stop offset="0%" stop-color="#1e3a8a"></stop><stop offset="100%" stop-color="#93c5fd"></stop></linearGradient></defs><g><g fill="#e8f3ed" transform="matrix(2.4525176742172845,0,0,2.4525176742172845,14.368351367923069,118.15097398511638)" stroke="#1e3a8a" stroke-width="0.15"><path d="M1.07-14.22L5.58-14.22L8.75-4.33L11.91-14.22L16.43-14.22L16.43 0L12.99 0L12.99-3.32L13.32-10.12L9.88 0L7.62 0L4.17-10.13L4.50-3.32L4.50 0L1.07 0L1.07-14.22ZM24.38 0L18.60 0L18.60-14.22L23.71-14.22Q26.46-14.22 27.89-13.21Q29.32-12.21 29.32-10.29L29.32-10.29Q29.32-9.19 28.81-8.41Q28.30-7.63 27.31-7.26L27.31-7.26Q28.43-6.96 29.02-6.16Q29.62-5.36 29.62-4.21L29.62-4.21Q29.62-2.12 28.30-1.07Q26.97-0.02 24.38 0L24.38 0ZM24.43-6.04L22.03-6.04L22.03-2.64L24.28-2.64Q25.21-2.64 25.70-3.06Q26.20-3.49 26.20-4.26L26.20-4.26Q26.20-6.04 24.43-6.04L24.43-6.04ZM22.03-11.57L22.03-8.29L23.82-8.29Q24.94-8.30 25.42-8.70Q25.90-9.10 25.90-9.88L25.90-9.88Q25.90-10.78 25.38-11.18Q24.86-11.57 23.71-11.57L23.71-11.57L22.03-11.57ZM33.39-3.19L33.39-3.19Q34.17-3.19 34.69-2.73Q35.21-2.27 35.21-1.54Q35.21-0.82 34.69-0.36Q34.17 0.11 33.39 0.11L33.39 0.11Q32.60 0.11 32.08-0.36Q31.57-0.83 31.57-1.54Q31.57-2.26 32.08-2.72Q32.60-3.19 33.39-3.19ZM36.98-5.36L36.98-5.36Q36.98-7.87 38.07-9.32Q39.15-10.76 41.09-10.76L41.09-10.76Q42.51-10.76 43.48-9.65L43.48-9.65L43.48-15L46.78-15L46.78 0L43.82 0L43.65-1.13Q42.64 0.20 41.07 0.20L41.07 0.20Q39.19 0.20 38.09-1.25Q36.98-2.70 36.98-5.36ZM40.28-5.76L40.27-5.16Q40.27-2.34 41.91-2.34L41.91-2.34Q43.01-2.34 43.48-3.26L43.48-3.26L43.48-7.29Q43.03-8.22 41.93-8.22L41.93-8.22Q40.41-8.22 40.28-5.76L40.28-5.76ZM53.76 0.20L53.76 0.20Q51.33 0.20 49.82-1.25Q48.32-2.71 48.32-5.03L48.32-5.03L48.32-5.30Q48.32-6.92 48.92-8.16Q49.52-9.40 50.67-10.08Q51.83-10.76 53.41-10.76L53.41-10.76Q55.63-10.76 56.92-9.38Q58.21-8.00 58.21-5.53L58.21-5.53L58.21-4.25L51.67-4.25Q51.85-3.36 52.44-2.85Q53.04-2.34 53.98-2.34L53.98-2.34Q55.55-2.34 56.43-3.44L56.43-3.44L57.93-1.66Q57.31-0.81 56.19-0.31Q55.06 0.20 53.76 0.20ZM53.39-8.22L53.39-8.22Q51.94-8.22 51.67-6.31L51.67-6.31L54.99-6.31L54.99-6.56Q55.01-7.35 54.59-7.79Q54.17-8.22 53.39-8.22ZM61.98-10.57L63.62-3.92L65.29-10.57L68.76-10.57L65.31 0L61.95 0L58.51-10.57L61.98-10.57Z"></path></g></g></svg>